<svg xmlns="http://www.w3.org/2000/svg" viewBox="0 0 1200 689">
  <defs>
    <clipPath id="monitoror-mockup-tile-mask">
      <path d="M1200 20.67C1200 9.262 1191.14 0 1180.23 0H19.77C8.859 0 0 9.262 0 20.67v647.66C0 679.738 8.859 689 19.77 689h1160.46c10.91 0 19.77-9.262 19.77-20.67V20.67z"/>
    </clipPath>
  </defs>
  <path fill="#171b20" d="M1200 10.335C1200 4.631 1195.37 0 1189.66 0H10.335C4.631 0 0 4.631 0 10.335v668.33C0 684.369 4.631 689 10.335 689H1189.66c5.71 0 10.34-4.631 10.34-10.335V10.335z"/>
  <g transform="matrix(.23667 0 0 .22637 23.002 510.032)">
    <path fill="#88d8b0" d="M1200 20.67C1200 9.262 1191.14 0 1180.23 0H19.77C8.859 0 0 9.262 0 20.67v647.66C0 679.738 8.859 689 19.77 689h1160.46c10.91 0 19.77-9.262 19.77-20.67V20.67z"/>
    <circle cx="50.788" cy="155.336" r="12.044" fill="#171b20" fill-opacity=".15" transform="matrix(4.47323 0 0 4.67677 -110.274 -150.083)"/>
    <path fill="#171b20" fill-opacity=".25" d="M774.726 92.276c0-14.278-11.09-25.874-24.744-25.874H87.785c-13.662 0-24.752 11.596-24.752 25.874 0 14.282 11.09 25.873 24.752 25.873h662.197c13.653 0 24.744-11.591 24.744-25.873z"/>
  </g>
  <g transform="matrix(.23667 0 0 .22637 312.982 510.032)">
    <path fill="#88d8b0" d="M1200 20.67C1200 9.262 1191.14 0 1180.23 0H19.77C8.859 0 0 9.262 0 20.67v647.66C0 679.738 8.859 689 19.77 689h1160.46c10.91 0 19.77-9.262 19.77-20.67V20.67z"/>
    <circle cx="50.788" cy="155.336" r="12.044" fill="#171b20" fill-opacity=".15" transform="matrix(4.47323 0 0 4.67677 -110.274 -150.083)"/>
    <path fill="#171b20" fill-opacity=".25" d="M528.71 92.276c0-14.278-11.09-25.874-24.751-25.874H87.784c-13.656 0-24.75 11.596-24.75 25.874 0 14.282 11.094 25.873 24.75 25.873h416.175c13.662 0 24.75-11.591 24.75-25.873z"/>
  </g>
  <g transform="matrix(.23667 0 0 .22637 602.962 510.032)">
    <path fill="#88d8b0" d="M1200 20.67C1200 9.262 1191.14 0 1180.23 0H19.77C8.859 0 0 9.262 0 20.67v647.66C0 679.738 8.859 689 19.77 689h1160.46c10.91 0 19.77-9.262 19.77-20.67V20.67z"/>
    <circle cx="50.788" cy="155.336" r="12.044" fill="#171b20" fill-opacity=".15" transform="matrix(4.47323 0 0 4.67677 -110.274 -150.083)"/>
    <path fill="#171b20" fill-opacity=".25" d="M599.991 92.276c0-14.278-11.087-25.874-24.748-25.874H87.782c-13.655 0-24.748 11.596-24.748 25.874 0 14.282 11.093 25.873 24.748 25.873h487.461c13.661 0 24.748-11.591 24.748-25.873z"/>
  </g>
  <g transform="matrix(.23667 0 0 .22637 892.942 510.032)">
    <path fill="#88d8b0" d="M1200 20.67C1200 9.262 1191.14 0 1180.23 0H19.77C8.859 0 0 9.262 0 20.67v647.66C0 679.738 8.859 689 19.77 689h1160.46c10.91 0 19.77-9.262 19.77-20.67V20.67z"/>
    <circle cx="50.788" cy="155.336" r="12.044" fill="#171b20" fill-opacity=".15" transform="matrix(4.47323 0 0 4.67677 -110.274 -150.083)"/>
    <path fill="#171b20" fill-opacity=".25" d="M886.738 92.276c0-14.278-11.086-25.874-24.748-25.874H87.78c-13.652 0-24.748 11.596-24.748 25.874 0 14.282 11.096 25.873 24.749 25.873H861.99c13.662 0 24.748-11.591 24.748-25.873z"/>
  </g>
  <g transform="matrix(.23667 0 0 .22637 312.982 348.063)">
    <path fill="#88d8b0" d="M1200 20.67C1200 9.262 1191.14 0 1180.23 0H19.77C8.859 0 0 9.262 0 20.67v647.66C0 679.738 8.859 689 19.77 689h1160.46c10.91 0 19.77-9.262 19.77-20.67V20.67z"/>
    <circle cx="50.788" cy="155.336" r="12.044" fill="#171b20" fill-opacity=".15" transform="matrix(4.47323 0 0 4.67677 -110.274 -150.083)"/>
    <path fill="#171b20" fill-opacity=".3" d="M631.172 92.276c0-14.278-11.087-25.874-24.75-25.874H87.782c-13.655 0-24.75 11.596-24.75 25.874 0 14.282 11.095 25.873 24.75 25.873h518.64c13.663 0 24.75-11.591 24.75-25.873z"/>
  </g>
  <g transform="matrix(.23667 0 0 .22637 602.962 348.063)">
    <path fill="#ffcc5c" d="M1200 20.67C1200 9.262 1191.14 0 1180.23 0H19.77C8.859 0 0 9.262 0 20.67v647.66C0 679.738 8.859 689 19.77 689h1160.46c10.91 0 19.77-9.262 19.77-20.67V20.67z"/>
    <path fill="#171b20" fill-opacity=".3" d="M305.809 92.276c0-14.278-11.09-25.874-24.75-25.874H87.785c-13.657 0-24.75 11.596-24.75 25.874 0 14.282 11.093 25.873 24.75 25.873H281.06c13.66 0 24.749-11.591 24.749-25.873z"/>
    <circle cx="50.788" cy="155.336" r="12.044" fill="#171b20" fill-opacity=".15" transform="matrix(4.47323 0 0 4.67677 -110.274 -211.929)"/>
    <g clip-path="url(#monitoror-mockup-tile-mask)">
      <path fill="#20252a" fill-opacity=".5" d="M0 688.988h1199.983v-44.484H0v44.484z"/>
      <path fill="#fff" fill-opacity=".55" d="M0 688.988h366.604v-44.484H0v44.484z"/>
      <path fill="#171b20" d="M0 617.864h1199.983v26.66H0v-26.66z"/>
    </g>
  </g>
  <g transform="matrix(.23667 0 0 .22637 892.942 348.063)">
    <path fill="#88d8b0" d="M1200 20.67C1200 9.262 1191.14 0 1180.23 0H19.77C8.859 0 0 9.262 0 20.67v647.66C0 679.738 8.859 689 19.77 689h1160.46c10.91 0 19.77-9.262 19.77-20.67V20.67z"/>
    <circle cx="50.788" cy="155.336" r="12.044" fill="#171b20" fill-opacity=".15" transform="matrix(4.47323 0 0 4.67677 -110.274 -150.083)"/>
    <path fill="#171b20" fill-opacity=".3" d="M628.894 92.276c0-14.278-11.09-25.874-24.751-25.874H87.783c-13.66 0-24.75 11.596-24.75 25.874 0 14.282 11.09 25.873 24.75 25.873h516.36c13.661 0 24.75-11.591 24.75-25.873z"/>
  </g>
  <g transform="matrix(.23667 0 0 .46145 23.002 186.095)">
    <path fill="#88d8b0" d="M1200 12.309C1200 5.516 1189.25 0 1176 0H24C10.754 0 0 5.516 0 12.309v664.382C0 683.484 10.754 689 24 689h1152c13.25 0 24-5.516 24-12.309V12.309z"/>
    <circle cx="50.788" cy="155.336" r="12.044" fill="#171b20" fill-opacity=".15" transform="matrix(4.47323 0 0 2.29425 -110.274 277.376)"/>
    <path fill="#171b20" fill-opacity=".25" d="M339.989 45.267c0-7.004-11.09-12.693-24.748-12.693H87.786c-13.66 0-24.751 5.689-24.751 12.693 0 7.006 11.09 12.693 24.751 12.693h227.455c13.657 0 24.748-5.687 24.748-12.693z"/>
  </g>
  <g transform="matrix(.23667 0 0 .22637 312.982 186.095)">
    <path fill="#ff6f69" d="M1200 20.67C1200 9.262 1191.14 0 1180.23 0H19.77C8.859 0 0 9.262 0 20.67v647.66C0 679.738 8.859 689 19.77 689h1160.46c10.91 0 19.77-9.262 19.77-20.67V20.67z"/>
    <circle cx="50.788" cy="155.336" r="12.044" fill="#171b20" fill-opacity=".15" transform="matrix(4.47323 0 0 4.67677 -110.274 -150.083)"/>
    <path fill="#171b20" fill-opacity=".25" d="M286.38 92.276c0-14.278-11.09-25.874-24.748-25.874H87.783c-13.658 0-24.748 11.596-24.748 25.874 0 14.282 11.09 25.873 24.748 25.873h173.85c13.658 0 24.748-11.591 24.748-25.873z"/>
  </g>
  <g transform="matrix(.47832 0 0 .22637 602.962 186.095)">
    <path fill="#88d8b0" d="M1200 20.67c0-11.408-4.38-20.67-9.78-20.67H9.782C4.383 0 0 9.262 0 20.67v647.66C0 679.738 4.383 689 9.782 689H1190.22c5.4 0 9.78-9.262 9.78-20.67V20.67z"/>
    <circle cx="50.788" cy="155.336" r="12.044" fill="#171b20" fill-opacity=".15" transform="matrix(2.21334 0 0 4.67677 -54.563 -150.083)"/>
    <path fill="#171b20" fill-opacity=".25" d="M670.055 92.276c0-14.278-5.483-25.874-12.248-25.874H43.435c-6.758 0-12.248 11.596-12.248 25.874 0 14.282 5.49 25.873 12.248 25.873h614.372c6.765 0 12.248-11.591 12.248-25.873z"/>
  </g>
  <g transform="matrix(.23667 0 0 .22637 23.002 24.02)">
    <path fill="#88d8b0" d="M1200 20.67C1200 9.262 1191.14 0 1180.23 0H19.77C8.859 0 0 9.262 0 20.67v647.66C0 679.738 8.859 689 19.77 689h1160.46c10.91 0 19.77-9.262 19.77-20.67V20.67z"/>
    <circle cx="50.788" cy="155.336" r="12.044" fill="#171b20" fill-opacity=".15" transform="matrix(4.47323 0 0 4.67677 -110.274 -150.083)"/>
    <path fill="#171b20" fill-opacity=".25" d="M420.939 92.276c0-14.278-11.087-25.874-24.748-25.874H87.786c-13.66 0-24.752 11.596-24.752 25.874 0 14.282 11.092 25.873 24.752 25.873H396.19c13.66 0 24.748-11.591 24.748-25.873z"/>
  </g>
  <g transform="matrix(.23667 0 0 .22637 312.982 24.02)">
    <path fill="#88d8b0" d="M1200 20.67C1200 9.262 1191.14 0 1180.23 0H19.77C8.859 0 0 9.262 0 20.67v647.66C0 679.738 8.859 689 19.77 689h1160.46c10.91 0 19.77-9.262 19.77-20.67V20.67z"/>
    <circle cx="50.788" cy="155.336" r="12.044" fill="#171b20" fill-opacity=".15" transform="matrix(4.47323 0 0 4.67677 -110.274 -150.083)"/>
    <path fill="#171b20" fill-opacity=".25" d="M916.003 92.276c0-14.278-11.087-25.874-24.751-25.874H87.784c-13.654 0-24.751 11.596-24.751 25.874 0 14.282 11.097 25.873 24.751 25.873h803.468c13.664 0 24.751-11.591 24.751-25.873z"/>
  </g>
  <g transform="matrix(.23667 0 0 .22637 602.962 24.02)">
    <path fill="#88d8b0" d="M1200 20.67C1200 9.262 1191.14 0 1180.23 0H19.77C8.859 0 0 9.262 0 20.67v647.66C0 679.738 8.859 689 19.77 689h1160.46c10.91 0 19.77-9.262 19.77-20.67V20.67z"/>
    <circle cx="50.788" cy="155.336" r="12.044" fill="#171b20" fill-opacity=".15" transform="matrix(4.47323 0 0 4.67677 -110.274 -150.083)"/>
    <path fill="#171b20" fill-opacity=".25" d="M305.809 92.276c0-14.278-11.09-25.874-24.75-25.874H87.785c-13.657 0-24.75 11.596-24.75 25.874 0 14.282 11.093 25.873 24.75 25.873H281.06c13.66 0 24.749-11.591 24.749-25.873z"/>
  </g>
  <g transform="matrix(.23667 0 0 .22637 892.942 24.02)">
    <path fill="#88d8b0" d="M1200 20.67C1200 9.262 1191.14 0 1180.23 0H19.77C8.859 0 0 9.262 0 20.67v647.66C0 679.738 8.859 689 19.77 689h1160.46c10.91 0 19.77-9.262 19.77-20.67V20.67z"/>
    <path fill="#171b20" fill-opacity=".25" d="M538.948 92.276c0-14.278-11.091-25.874-24.75-25.874H87.783c-13.658 0-24.75 11.596-24.75 25.874 0 14.282 11.092 25.873 24.75 25.873h426.415c13.659 0 24.75-11.591 24.75-25.873z"/>
    <circle cx="50.788" cy="155.336" r="12.044" fill="#171b20" fill-opacity=".15" transform="matrix(4.47323 0 0 4.67677 -110.274 -211.929)"/>
    <g clip-path="url(#monitoror-mockup-tile-mask)">
      <path fill="#20252a" fill-opacity=".5" d="M0 688.988h1199.983v-44.484H0v44.484z" data-osef="Progress"/>
      <path fill="#fff" fill-opacity=".55" d="M0 688.988h877.004v-44.484H0v44.484z"/>
      <path fill="#171b20" d="M0 617.864h1199.983v26.66H0v-26.66z"/>
    </g>
  </g>
</svg>
